<svg width="350" height="351" viewBox="0 0 350 351" fill="none" xmlns="http://www.w3.org/2000/svg">
<path d="M175.016 0C127.489 0 121.524 0.207818 102.857 1.05731C84.2269 1.91044 71.5101 4.85995 60.3829 9.1876C48.8729 13.6574 39.1093 19.6367 29.3821 29.3675C19.6476 39.0947 13.6684 48.8583 9.18395 60.3647C4.84536 71.4955 1.89221 84.216 1.05366 102.839C0.218751 121.506 0 127.474 0 175.002C0 222.529 0.211464 228.476 1.05731 247.143C1.91409 265.773 4.86359 278.49 9.1876 289.617C13.6611 301.127 19.6403 310.891 29.3711 320.618C39.0947 330.352 48.8583 336.346 60.361 340.816C71.4955 345.144 84.216 348.093 102.843 348.946C121.51 349.796 127.471 350.004 174.995 350.004C222.526 350.004 228.472 349.796 247.139 348.946C265.769 348.093 278.501 345.144 289.635 340.816C301.142 336.346 310.891 330.352 320.614 320.618C330.349 310.891 336.328 301.127 340.812 289.621C345.115 278.49 348.068 265.769 348.943 247.146C349.781 228.479 350 222.529 350 175.002C350 127.474 349.781 121.51 348.943 102.843C348.068 84.2123 345.115 71.4955 340.812 60.3683C336.328 48.8583 330.349 39.0947 320.614 29.3675C310.88 19.633 301.145 13.6538 289.624 9.1876C278.468 4.85995 265.744 1.91044 247.114 1.05731C228.447 0.207818 222.504 0 174.962 0H175.016ZM159.317 31.5368C163.977 31.5295 169.176 31.5368 175.016 31.5368C221.742 31.5368 227.28 31.7045 245.732 32.543C262.794 33.3233 272.055 36.1743 278.224 38.5697C286.39 41.7416 292.213 45.5333 298.334 51.6583C304.459 57.7834 308.251 63.6168 311.43 71.7835C313.826 77.9451 316.68 87.2056 317.457 104.268C318.296 122.716 318.478 128.258 318.478 174.962C318.478 221.665 318.296 227.207 317.457 245.655C316.677 262.718 313.826 271.978 311.43 278.14C308.258 286.307 304.459 292.122 298.334 298.243C292.209 304.368 286.394 308.16 278.224 311.332C272.062 313.738 262.794 316.582 245.732 317.362C227.284 318.201 221.742 318.383 175.016 318.383C128.287 318.383 122.749 318.201 104.301 317.362C87.2384 316.575 77.9779 313.724 71.8054 311.328C63.6387 308.156 57.8053 304.365 51.6802 298.24C45.5552 292.114 41.7635 286.296 38.5843 278.125C36.1889 271.964 33.3342 262.703 32.5576 245.641C31.7191 227.192 31.5514 221.651 31.5514 174.918C31.5514 128.185 31.7191 122.673 32.5576 104.225C33.3378 87.1618 36.1889 77.9013 38.5843 71.7325C41.7562 63.5658 45.5552 57.7324 51.6802 51.6073C57.8053 45.4822 63.6387 41.6905 71.8054 38.5113C77.9743 36.1051 87.2384 33.2613 104.301 32.4774C120.445 31.7482 126.701 31.5295 159.317 31.493V31.5368ZM268.431 60.5944C256.837 60.5944 247.431 69.9898 247.431 81.5873C247.431 93.1812 256.837 102.588 268.431 102.588C280.025 102.588 289.431 93.1812 289.431 81.5873C289.431 69.9934 280.025 60.5871 268.431 60.5871V60.5944ZM175.016 85.1311C125.385 85.1311 85.1457 125.371 85.1457 175.002C85.1457 224.633 125.385 264.854 175.016 264.854C224.648 264.854 264.873 224.633 264.873 175.002C264.873 125.371 224.644 85.1311 175.013 85.1311H175.016ZM175.016 116.668C207.231 116.668 233.35 142.783 233.35 175.002C233.35 207.217 207.231 233.336 175.016 233.336C142.798 233.336 116.682 207.217 116.682 175.002C116.682 142.783 142.798 116.668 175.016 116.668V116.668Z" fill="#23242C"/>
</svg>
